<?xml version="1.0" encoding="UTF-8"?>
<svg version="1.1" xmlns="http://www.w3.org/2000/svg" width="32" height="32">
<path d="M0 0 C10.56 0 21.12 0 32 0 C32 10.56 32 21.12 32 32 C21.44 32 10.88 32 0 32 C0 21.44 0 10.88 0 0 Z " fill="#F16520" transform="translate(0,0)"/>
<path d="M0 0 C10.56 0 21.12 0 32 0 C32 10.56 32 21.12 32 32 C21.44 32 10.88 32 0 32 C0 21.44 0 10.88 0 0 Z M2 2 C2 11.24 2 20.48 2 30 C11.24 30 20.48 30 30 30 C30 20.76 30 11.52 30 2 C20.76 2 11.52 2 2 2 Z " fill="#F16145" transform="translate(0,0)"/>
<path d="M0 0 C5.28 0 10.56 0 16 0 C16 1.98 16 3.96 16 6 C15.34 6 14.68 6 14 6 C13.67 5.01 13.34 4.02 13 3 C10.69 2.67 8.38 2.34 6 2 C6 4.31 6 6.62 6 9 C8.86724686 8.42655063 9.8614515 8.1385485 12 6 C12 8.31 12 10.62 12 13 C11.67 12.34 11.34 11.68 11 11 C9.35 11 7.7 11 6 11 C6 13.31 6 15.62 6 18 C11.58500567 17.80101292 11.58500567 17.80101292 16 15 C16 16.65 16 18.3 16 20 C10.72 20 5.44 20 0 20 C0 19.34 0 18.68 0 18 C0.66 18 1.32 18 2 18 C2 12.72 2 7.44 2 2 C1.34 2 0.68 2 0 2 C0 1.34 0 0.68 0 0 Z " fill="#FCE4D8" transform="translate(8,6)"/>
<path d="M0 0 C5.28 0 10.56 0 16 0 C16 1.98 16 3.96 16 6 C15.34 6 14.68 6 14 6 C13.67 5.01 13.34 4.02 13 3 C10.69 2.67 8.38 2.34 6 2 C6 4.31 6 6.62 6 9 C8.86724686 8.42655063 9.8614515 8.1385485 12 6 C12 8.31 12 10.62 12 13 C11.67 12.34 11.34 11.68 11 11 C9.35 11 7.7 11 6 11 C6 13.31 6 15.62 6 18 C5.67 18 5.34 18 5 18 C5 12.39 5 6.78 5 1 C3.35 1.33 1.7 1.66 0 2 C0 1.34 0 0.68 0 0 Z " fill="#F9C6AD" transform="translate(8,6)"/>
</svg>
