<?xml version="1.0" encoding="UTF-8"?>
<svg version="1.1" xmlns="http://www.w3.org/2000/svg" width="144" height="144">
<path d="M0 0 C1.5950015 -0.00322612 3.19000273 -0.00659112 4.78500366 -0.01008606 C8.11139612 -0.01603123 11.43776278 -0.01793082 14.76416016 -0.01733398 C18.1346576 -0.01725285 21.50501876 -0.02418193 24.87548828 -0.0378418 C57.09826472 -0.16597885 57.09826472 -0.16597885 68.546875 0.9296875 C69.59097031 1.02114799 69.59097031 1.02114799 70.65615845 1.11445618 C76.6959398 1.83994956 82.0553629 4.18717047 86.5234375 8.29296875 C91.95419036 17.54536252 92.36167206 28.3258059 92.4140625 38.79296875 C92.41976257 39.69813232 92.42546265 40.6032959 92.43133545 41.53588867 C92.44073556 43.44530081 92.44729944 45.35472881 92.45117188 47.26416016 C92.460817 50.1321379 92.49186349 52.99937921 92.5234375 55.8671875 C92.6923546 84.34883051 92.6923546 84.34883051 85.2109375 94.16796875 C73.68902861 103.81421806 54.58315569 101.32908705 40.421875 101.3359375 C38.8268735 101.33916362 37.23187227 101.34252862 35.63687134 101.34602356 C32.31047888 101.35196873 28.98411222 101.35386832 25.65771484 101.35327148 C22.2872174 101.35319035 18.91685624 101.36011943 15.54638672 101.3737793 C-16.67638972 101.50191635 -16.67638972 101.50191635 -28.125 100.40625 C-28.82106354 100.34527634 -29.51712708 100.28430267 -30.23428345 100.22148132 C-36.28785944 99.49433094 -41.6795218 97.16348022 -46.1015625 92.98046875 C-51.63740592 83.75406306 -51.94410334 73.48161218 -51.95703125 63 C-51.96035965 62.04332932 -51.96368805 61.08665863 -51.96711731 60.10099792 C-51.97215662 58.08483354 -51.97452657 56.06866091 -51.97436523 54.05249023 C-51.97654363 51.00685477 -51.9947094 47.9615868 -52.01367188 44.91601562 C-52.1016012 15.39457479 -52.1016012 15.39457479 -44.7890625 7.16796875 C-33.50488091 -2.57746081 -14.0066437 0.00677564 0 0 Z " fill="#FF0033" transform="translate(51.7890625,21.83203125)"/>
<path d="M0 0 C12.375 6.75 12.375 6.75 17.76171875 9.8671875 C19.46811523 10.85332031 19.46811523 10.85332031 21.20898438 11.859375 C22.36850681 12.53122027 23.52801182 13.20309561 24.6875 13.875 C25.88990265 14.5704358 27.09237625 15.26574896 28.29492188 15.9609375 C31.19731048 17.6394273 34.09898667 19.31913475 37 21 C33.51206966 23.91388098 29.97477701 26.30470903 26.03515625 28.56640625 C24.90529297 29.21673828 23.77542969 29.86707031 22.61132812 30.53710938 C22.02810791 30.8699292 21.4448877 31.20274902 20.84399414 31.5456543 C19.06847389 32.55909021 17.2966708 33.57878424 15.52539062 34.59960938 C10.39710389 37.54216479 5.29291399 40.35354301 0 43 C0 28.81 0 14.62 0 0 Z " fill="#FFF9FA" transform="translate(58,51)"/>
</svg>
