<svg width="2160" height="2160" viewBox="0 0 2160 2160" fill="none" xmlns="http://www.w3.org/2000/svg">
<rect x="187.826" y="250.435" width="1784.35" height="907.826" fill="#FAEBD7"/>
<path d="M1815.65 0C2005.83 0.000117001 2160 154.17 2160 344.348V1815.65C2160 2005.83 2005.83 2160 1815.65 2160H344.348C154.17 2160 9.9657e-05 2005.83 0 1815.65V344.348C0.000117061 154.17 154.17 9.96052e-05 344.348 0H1815.65ZM1228.67 869.548V944.678H1544.84V869.548H1228.67ZM756.505 533.965C725.618 533.965 697.861 540.852 673.235 554.626C648.609 568.4 628.991 587.391 614.383 611.6C600.192 635.391 593.096 662.522 593.096 692.991C593.096 723.461 600.4 750.8 615.009 775.009C629.617 799.217 649.652 818.209 675.113 831.982C700.992 845.339 730.418 852.018 763.392 852.018C788.852 852.018 812.227 847.634 833.514 838.869C854.8 830.104 872.956 816.956 887.982 799.426L835.392 746.835C826.209 757.27 815.565 765.2 803.461 770.626C791.357 775.635 777.792 778.139 762.766 778.139C746.487 778.139 732.296 774.8 720.191 768.122C708.504 761.026 699.322 751.217 692.644 738.695C690.542 734.351 688.795 729.724 687.398 724.815L905.514 724.296C907.183 716.365 908.226 709.478 908.644 703.635C909.478 697.374 909.895 691.531 909.896 686.104C909.896 656.47 903.218 630.174 889.861 607.218C876.922 584.261 858.974 566.313 836.018 553.374C813.061 540.435 786.557 533.965 756.505 533.965ZM462.415 390.591V560.608C455.464 555.131 447.743 550.423 439.25 546.487C422.554 538.557 403.772 534.591 382.902 534.591C354.102 534.591 328.433 541.478 305.894 555.252C283.772 569.026 266.241 587.808 253.302 611.6C240.78 635.391 234.52 662.522 234.52 692.991C234.52 723.461 240.78 750.592 253.302 774.383C266.241 798.174 283.772 816.957 305.894 830.73C328.433 844.504 354.102 851.392 382.902 851.392C403.772 851.392 422.763 847.217 439.876 838.869C448.883 834.256 457.021 828.89 464.293 822.773V845.131H558.206V390.591H462.415ZM905.538 540.853L1034.51 845.131H1111.52L1240.49 540.853H1139.07L1073.96 729.215L1008.84 540.853H905.538ZM400.433 620.991C413.789 620.991 425.476 624.122 435.493 630.383C445.928 636.644 453.858 645.2 459.284 656.052C465.128 666.487 468.05 678.8 468.05 692.991C468.05 707.183 465.128 719.704 459.284 730.557C453.441 741.409 445.51 749.965 435.493 756.226C425.476 762.069 413.58 764.991 399.807 764.991C386.868 764.991 375.18 761.86 364.745 755.6C354.311 749.339 346.172 740.783 340.328 729.931C334.485 719.078 331.562 706.765 331.562 692.991C331.563 679.217 334.485 666.904 340.328 656.052C346.589 645.2 354.728 636.644 364.745 630.383C375.18 624.122 387.076 620.991 400.433 620.991ZM757.131 607.218C771.322 607.218 783.217 610.348 792.817 616.608C802.835 622.452 810.348 631.217 815.356 642.904C817.451 647.616 819.141 652.876 820.433 658.682L687.435 659.058C688.683 654.666 690.21 650.534 692.018 646.661C698.278 634.139 706.835 624.539 717.688 617.86C728.957 610.765 742.105 607.218 757.131 607.218Z" fill="#C1121F"/>
</svg>
